<svg
  xmlns="http://www.w3.org/2000/svg"
  width="18"
  height="14"
  fill="none"
  viewBox="0 0 18 14"
>
  <path
    fill="#F2C855"
    d="m9.37 13.043-3.6-.066c-1.166-.023-2.334.023-3.477-.215C.554 12.407.43 10.666.303 9.205a24.955 24.955 0 0 1 .225-6.181c.19-1.143.934-1.825 2.086-1.899C6.5.855 10.413.888 14.29 1.013c.41.012.822.075 1.226.147 1.994.349 2.042 2.322 2.172 3.984a22.587 22.587 0 0 1-.172 5.032c-.198 1.38-.576 2.538-2.172 2.65-2 .146-3.953.263-5.957.226 0-.009-.012-.009-.018-.009ZM7.254 9.55c1.506-.865 2.984-1.716 4.482-2.575-1.51-.865-2.984-1.716-4.482-2.575v5.15Z"
  />
</svg>